<svg style="display:none;">
    <defs>
        <symbol id="down" viewBox="0 0 16 16">
            <polygon points="3.81 4.38 8 8.57 12.19 4.38 13.71 5.91 8 11.62 2.29 5.91 3.81 4.38" />
        </symbol>
        <symbol id="users" viewBox="0 0 16 16">
            <path
                d="M8,0a8,8,0,1,0,8,8A8,8,0,0,0,8,0ZM8,15a7,7,0,0,1-5.19-2.32,2.71,2.71,0,0,1,1.7-1,13.11,13.11,0,0,0,1.29-.28,2.32,2.32,0,0,0,.94-.34,1.17,1.17,0,0,0-.27-.7h0A3.61,3.61,0,0,1,5.15,7.49,3.18,3.18,0,0,1,8,4.07a3.18,3.18,0,0,1,2.86,3.42,3.6,3.6,0,0,1-1.32,2.88h0a1.13,1.13,0,0,0-.27.69,2.68,2.68,0,0,0,.93.31,10.81,10.81,0,0,0,1.28.23,2.63,2.63,0,0,1,1.78,1A7,7,0,0,1,8,15Z" />
        </symbol>
        <symbol id="x-but" viewBox="0 0 24 24">
            <path
                d="M12 11.293l10.293-10.293.707.707-10.293 10.293 10.293 10.293-.707.707-10.293-10.293-10.293 10.293-.707-.707 10.293-10.293-10.293-10.293.707-.707 10.293 10.293z"
                stroke="black" stroke-width="1" stroke-dasharray="0" />
        </symbol>
        <symbol id="user-out" viewBox="0 0 224 260">
            <path id="arrow.svg" data-parent="" class="arrow" fill-rule="evenodd" d="M104.56 53.65H85.21l58.17 58.48H0v13h143.38L85.21 183.6h19.35l64.84-64.97-64.84-64.98z" data-name="arrow.svg"/>
            <path id="door.svg" class="door" d="M49.24 0v83.96h12.44V13h149.34v234H61.68v-92.62H49.24V260H224V0H49.24z" data-name="door.svg"/>
        </symbol> 
    </defs>
</svg>  