<svg xmlns="http://www.w3.org/2000/svg" width="40" height="185" viewBox="0 0.249 36 166.502">
  <metadata>    <?xpacket begin="﻿" id="W5M0MpCehiHzreSzNTczkc9d"?>
    <x:xmpmeta xmlns:x="adobe:ns:meta/" x:xmptk="Adobe XMP Core 5.6-c142 79.160924, 2017/07/13-01:06:39        ">
      <rdf:RDF xmlns:rdf="http://www.w3.org/1999/02/22-rdf-syntax-ns#">
        <rdf:Description rdf:about=""/>
      </rdf:RDF>
    </x:xmpmeta>





















    <?xpacket end="w"?></metadata>
  <defs>
    <style>
      .cls-1, .cls-2 {
        stroke: #000;
        stroke-width: 0.37px;
        stroke-dasharray: 1.48 0.74;
      }

      .cls-1 {
        fill-rule: evenodd;
      }
    </style>
  </defs>
  <path id="Фигура_1" data-name="Фигура 1" class="cls-1" d="M15.251,34a2.216,2.216,0,0,0,1.6-.682l6.482-6.692a2.35,2.35,0,0,0,0-3.252l-6.482-6.692a2.211,2.211,0,0,0-3.183-.011,2.349,2.349,0,0,0-.011,3.264L18.56,25l-4.907,5.066a2.349,2.349,0,0,0,.011,3.264A2.216,2.216,0,0,0,15.251,34Z"/>
  <rect id="Прямоугольник_скругл._углы_1" data-name="Прямоугольник, скругл. углы 1" class="cls-2" x="9" y="143" width="5" height="12" rx="2.5" ry="2.5"/>
</svg>
